<svg width="42" height="23" xmlns="http://www.w3.org/2000/svg" xmlns:xlink="http://www.w3.org/1999/xlink" overflow="hidden"><defs><clipPath id="clip0"><rect x="619" y="346" width="42" height="23"/></clipPath><clipPath id="clip1"><rect x="626" y="353" width="28" height="14"/></clipPath><clipPath id="clip2"><rect x="626" y="353" width="28" height="14"/></clipPath><clipPath id="clip3"><rect x="626" y="353" width="28" height="14"/></clipPath><clipPath id="clip4"><rect x="620" y="346" width="40" height="21"/></clipPath><clipPath id="clip5"><rect x="620" y="346" width="40" height="21"/></clipPath><clipPath id="clip6"><rect x="620" y="346" width="40" height="21"/></clipPath><clipPath id="clip7"><rect x="639" y="365" width="16" height="4"/></clipPath><clipPath id="clip8"><rect x="639" y="365" width="16" height="4"/></clipPath><clipPath id="clip9"><rect x="639" y="365" width="16" height="4"/></clipPath></defs><g clip-path="url(#clip0)" transform="translate(-619 -346)"><g clip-path="url(#clip1)"><g clip-path="url(#clip2)"><g clip-path="url(#clip3)"><path d="M654 367 626 367C626 359.27 632.27 353 640.001 353 647.731 353 654 359.27 654 367Z" fill="#FFFFFF" fill-opacity="0.59"/></g></g></g><g clip-path="url(#clip4)"><g clip-path="url(#clip5)"><g clip-path="url(#clip6)"><path d="M660 365.799C660.002 360.929 658.176 356.233 654.878 352.621L654.169 351.84C646.398 344.098 633.746 344.047 625.911 351.726 622.107 355.451 619.977 360.535 620 365.833L620 367 623.906 367 623.906 365.833 622.373 365.833C622.374 361.552 623.976 357.423 626.869 354.243L628.05 355.303 628.828 354.429 627.648 353.39C630.81 350.321 635.026 348.547 639.451 348.423L639.451 350.65 640.632 350.65 640.632 348.376C645.062 348.512 649.277 350.298 652.434 353.379L651.255 354.37 652.033 355.245 653.213 354.231C656.084 357.404 657.672 361.515 657.675 365.776L656.093 365.776 656.093 366.942 660 366.942Z" fill="#FFFFFF"/></g></g></g><g clip-path="url(#clip7)"><g clip-path="url(#clip8)"><g clip-path="url(#clip9)"><path d="M640.88 368.997C640.866 368.997 640.852 368.998 640.838 368.998 640.513 368.993 640.195 368.897 639.918 368.721 639.735 368.614 639.571 368.476 639.433 368.313 639.172 367.999 639.031 367.611 639.007 367.18 639.002 367.11 638.999 367.04 639 366.97 639.001 366.927 639.005 366.885 639.008 366.843 639.02 366.676 639.051 366.51 639.102 366.351 639.151 366.181 639.222 366.019 639.313 365.869 639.535 365.503 639.879 365.232 640.28 365.105 640.478 365.033 640.687 364.998 640.896 365.001 640.905 365.001 640.914 365.002 640.922 365.003 640.949 365.002 640.974 364.999 641.001 365 641.017 365 641.032 365.001 641.048 365.003L654.459 366.402C654.767 366.433 655.001 366.711 655 367.043 654.999 367.374 654.762 367.651 654.453 367.682L640.989 368.998C640.966 369 640.944 369 640.922 369 640.908 368.999 640.894 368.997 640.88 368.997Z" fill="#FFFFFF"/></g></g></g></g></svg>